name C:\Users\u0101727\Documents\MyRepositories\upper-imu-dc\OpenSim\subject0\MA\ResultsMA\grid_4nodes_9dim\angles_8.mot
datacolumns 10
datarows 37
range 875.01000000 875.37000000
endheader 
time	clav_prot	clav_elev	scapula_abduction	scapula_elevation	scapula_upward_rot	scapula_winging	plane_elv	shoulder_elv	axial_rot	
        875.01000000	        -50.00000000	         20.00000000	        -40.00000000	         10.00000000	         30.00000000	        -10.00000000	        -30.00000000	         26.66666667	        -30.00000000	
        875.02000000	        -38.33333333	         20.00000000	        -40.00000000	         10.00000000	         30.00000000	        -10.00000000	        -30.00000000	         26.66666667	        -30.00000000	
        875.03000000	        -26.66666667	         20.00000000	        -40.00000000	         10.00000000	         30.00000000	        -10.00000000	        -30.00000000	         26.66666667	        -30.00000000	
        875.04000000	        -15.00000000	         20.00000000	        -40.00000000	         10.00000000	         30.00000000	        -10.00000000	        -30.00000000	         26.66666667	        -30.00000000	
        875.05000000	        -50.00000000	        -10.00000000	        -21.66666667	         10.00000000	         30.00000000	        -10.00000000	        -30.00000000	         26.66666667	        -30.00000000	
        875.06000000	        -38.33333333	        -10.00000000	        -21.66666667	         10.00000000	         30.00000000	        -10.00000000	        -30.00000000	         26.66666667	        -30.00000000	
        875.07000000	        -26.66666667	        -10.00000000	        -21.66666667	         10.00000000	         30.00000000	        -10.00000000	        -30.00000000	         26.66666667	        -30.00000000	
        875.08000000	        -15.00000000	        -10.00000000	        -21.66666667	         10.00000000	         30.00000000	        -10.00000000	        -30.00000000	         26.66666667	        -30.00000000	
        875.09000000	        -50.00000000	          0.00000000	        -21.66666667	         10.00000000	         30.00000000	        -10.00000000	        -30.00000000	         26.66666667	        -30.00000000	
        875.10000000	        -38.33333333	          0.00000000	        -21.66666667	         10.00000000	         30.00000000	        -10.00000000	        -30.00000000	         26.66666667	        -30.00000000	
        875.11000000	        -26.66666667	          0.00000000	        -21.66666667	         10.00000000	         30.00000000	        -10.00000000	        -30.00000000	         26.66666667	        -30.00000000	
        875.12000000	        -15.00000000	          0.00000000	        -21.66666667	         10.00000000	         30.00000000	        -10.00000000	        -30.00000000	         26.66666667	        -30.00000000	
        875.13000000	        -50.00000000	         10.00000000	        -21.66666667	         10.00000000	         30.00000000	        -10.00000000	        -30.00000000	         26.66666667	        -30.00000000	
        875.14000000	        -38.33333333	         10.00000000	        -21.66666667	         10.00000000	         30.00000000	        -10.00000000	        -30.00000000	         26.66666667	        -30.00000000	
        875.15000000	        -26.66666667	         10.00000000	        -21.66666667	         10.00000000	         30.00000000	        -10.00000000	        -30.00000000	         26.66666667	        -30.00000000	
        875.16000000	        -15.00000000	         10.00000000	        -21.66666667	         10.00000000	         30.00000000	        -10.00000000	        -30.00000000	         26.66666667	        -30.00000000	
        875.17000000	        -50.00000000	         20.00000000	        -21.66666667	         10.00000000	         30.00000000	        -10.00000000	        -30.00000000	         26.66666667	        -30.00000000	
        875.18000000	        -38.33333333	         20.00000000	        -21.66666667	         10.00000000	         30.00000000	        -10.00000000	        -30.00000000	         26.66666667	        -30.00000000	
        875.19000000	        -26.66666667	         20.00000000	        -21.66666667	         10.00000000	         30.00000000	        -10.00000000	        -30.00000000	         26.66666667	        -30.00000000	
        875.20000000	        -15.00000000	         20.00000000	        -21.66666667	         10.00000000	         30.00000000	        -10.00000000	        -30.00000000	         26.66666667	        -30.00000000	
        875.21000000	        -50.00000000	        -10.00000000	         -3.33333333	         10.00000000	         30.00000000	        -10.00000000	        -30.00000000	         26.66666667	        -30.00000000	
        875.22000000	        -38.33333333	        -10.00000000	         -3.33333333	         10.00000000	         30.00000000	        -10.00000000	        -30.00000000	         26.66666667	        -30.00000000	
        875.23000000	        -26.66666667	        -10.00000000	         -3.33333333	         10.00000000	         30.00000000	        -10.00000000	        -30.00000000	         26.66666667	        -30.00000000	
        875.24000000	        -15.00000000	        -10.00000000	         -3.33333333	         10.00000000	         30.00000000	        -10.00000000	        -30.00000000	         26.66666667	        -30.00000000	
        875.25000000	        -50.00000000	          0.00000000	         -3.33333333	         10.00000000	         30.00000000	        -10.00000000	        -30.00000000	         26.66666667	        -30.00000000	
        875.26000000	        -38.33333333	          0.00000000	         -3.33333333	         10.00000000	         30.00000000	        -10.00000000	        -30.00000000	         26.66666667	        -30.00000000	
        875.27000000	        -26.66666667	          0.00000000	         -3.33333333	         10.00000000	         30.00000000	        -10.00000000	        -30.00000000	         26.66666667	        -30.00000000	
        875.28000000	        -15.00000000	          0.00000000	         -3.33333333	         10.00000000	         30.00000000	        -10.00000000	        -30.00000000	         26.66666667	        -30.00000000	
        875.29000000	        -50.00000000	         10.00000000	         -3.33333333	         10.00000000	         30.00000000	        -10.00000000	        -30.00000000	         26.66666667	        -30.00000000	
        875.30000000	        -38.33333333	         10.00000000	         -3.33333333	         10.00000000	         30.00000000	        -10.00000000	        -30.00000000	         26.66666667	        -30.00000000	
        875.31000000	        -26.66666667	         10.00000000	         -3.33333333	         10.00000000	         30.00000000	        -10.00000000	        -30.00000000	         26.66666667	        -30.00000000	
        875.32000000	        -15.00000000	         10.00000000	         -3.33333333	         10.00000000	         30.00000000	        -10.00000000	        -30.00000000	         26.66666667	        -30.00000000	
        875.33000000	        -50.00000000	         20.00000000	         -3.33333333	         10.00000000	         30.00000000	        -10.00000000	        -30.00000000	         26.66666667	        -30.00000000	
        875.34000000	        -38.33333333	         20.00000000	         -3.33333333	         10.00000000	         30.00000000	        -10.00000000	        -30.00000000	         26.66666667	        -30.00000000	
        875.35000000	        -26.66666667	         20.00000000	         -3.33333333	         10.00000000	         30.00000000	        -10.00000000	        -30.00000000	         26.66666667	        -30.00000000	
        875.36000000	        -15.00000000	         20.00000000	         -3.33333333	         10.00000000	         30.00000000	        -10.00000000	        -30.00000000	         26.66666667	        -30.00000000	
        875.37000000	        -50.00000000	        -10.00000000	         15.00000000	         10.00000000	         30.00000000	        -10.00000000	        -30.00000000	         26.66666667	        -30.00000000	
